P3
1 2
255
0  0  0   100 0  0
